<svg width="20" height="20" viewBox="0 0 20 20" fill="none" xmlns="http://www.w3.org/2000/svg">
<g id="dot menu">
<path id="Icon" d="M9.68746 9.6868H10.3125M9.68746 10.3118H10.3125M3.85413 9.6868H4.47913M3.85413 10.3118H4.47913M15.5208 9.6868H16.1458M15.5208 10.3118H16.1458M10.8335 9.99935C10.8335 10.4596 10.4604 10.8327 10.0002 10.8327C9.53993 10.8327 9.16683 10.4596 9.16683 9.99935C9.16683 9.53911 9.53993 9.16602 10.0002 9.16602C10.4604 9.16602 10.8335 9.53911 10.8335 9.99935ZM5.00016 9.99935C5.00016 10.4596 4.62707 10.8327 4.16683 10.8327C3.70659 10.8327 3.3335 10.4596 3.3335 9.99935C3.3335 9.53911 3.70659 9.16602 4.16683 9.16602C4.62707 9.16602 5.00016 9.53911 5.00016 9.99935ZM16.6668 9.99935C16.6668 10.4596 16.2937 10.8327 15.8335 10.8327C15.3733 10.8327 15.0002 10.4596 15.0002 9.99935C15.0002 9.53911 15.3733 9.16602 15.8335 9.16602C16.2937 9.16602 16.6668 9.53911 16.6668 9.99935Z" stroke="black" stroke-width="2" stroke-linecap="round"/>
</g>
</svg>
