<svg width="804" height="661" viewBox="0 0 804 661" fill="none" xmlns="http://www.w3.org/2000/svg">
<path fill-rule="evenodd" clip-rule="evenodd" d="M511.13 265.265L421.928 381.79L421.934 381.783L392.536 419.021L392.391 418.894L361.277 459.049L343.126 482.043L343.112 482.056C326.623 500.051 306.829 514.975 284.69 525.861C258.444 538.79 228.899 546.045 197.665 546.045C159.551 546.045 123.963 535.239 93.7965 516.524V619.881C93.7965 642.523 75.4414 660.878 52.7992 660.878H41.4171C18.775 660.878 0.419922 642.523 0.419922 619.881V348.912C0.419922 341.583 0.820622 334.348 1.60199 327.226C12.4075 228.556 96.0671 151.779 197.665 151.779C278.018 151.779 347.153 199.802 377.893 268.697L299.877 367.521C300.965 361.487 301.54 355.266 301.54 348.912C301.54 291.571 255.032 245.096 197.665 245.096C140.298 245.096 93.7965 291.577 93.7965 348.912C93.7965 406.246 140.298 452.728 197.665 452.728C212.564 452.728 226.722 449.598 239.531 443.951C249.609 439.512 258.845 433.519 266.939 426.263H266.946C275.861 418.287 285.505 407.568 293.285 396.435L382.488 279.91L382.481 279.917L411.879 242.68L412.024 242.806L443.138 202.651L461.29 179.657L461.303 179.644C477.792 161.649 497.586 146.725 519.725 135.839C545.971 122.91 575.516 115.655 606.751 115.655C644.864 115.655 680.453 126.461 710.619 145.177L710.619 41.8195C710.619 19.1773 728.974 0.822264 751.616 0.822266L762.998 0.822267C785.64 0.822269 803.995 19.1774 803.995 41.8195L803.995 312.788C803.995 320.117 803.595 327.352 802.813 334.474C792.008 433.144 708.348 509.922 606.751 509.922C526.397 509.922 457.263 461.898 426.522 393.003L504.539 294.18C503.45 300.213 502.876 306.434 502.876 312.788C502.876 370.129 549.384 416.604 606.751 416.604C664.117 416.604 710.619 370.123 710.619 312.788C710.619 255.454 664.118 208.972 606.751 208.972C591.851 208.972 577.693 212.102 564.884 217.749C554.806 222.188 545.57 228.182 537.476 235.437H537.47C528.554 243.413 518.91 254.132 511.13 265.265Z" fill="#632DF8"/>
</svg>
