<svg width="24" height="25" viewBox="0 0 24 25" fill="none" xmlns="http://www.w3.org/2000/svg">
<g id="Frame" clip-path="url(#clip0_1_28748)">
<path id="Vector" d="M5 20.5195C5 20.6521 4.94732 20.7793 4.85355 20.8731C4.75979 20.9669 4.63261 21.0195 4.5 21.0195H4V21.5195C4 21.6521 3.94732 21.7793 3.85355 21.8731C3.75979 21.9669 3.63261 22.0195 3.5 22.0195C3.36739 22.0195 3.24021 21.9669 3.14645 21.8731C3.05268 21.7793 3 21.6521 3 21.5195V21.0195H2.5C2.36739 21.0195 2.24021 20.9669 2.14645 20.8731C2.05268 20.7793 2 20.6521 2 20.5195C2 20.3869 2.05268 20.2597 2.14645 20.166C2.24021 20.0722 2.36739 20.0195 2.5 20.0195H3V19.5195C3 19.3869 3.05268 19.2597 3.14645 19.166C3.24021 19.0722 3.36739 19.0195 3.5 19.0195C3.63261 19.0195 3.75979 19.0722 3.85355 19.166C3.94732 19.2597 4 19.3869 4 19.5195V20.0195H4.5C4.63261 20.0195 4.75979 20.0722 4.85355 20.166C4.94732 20.2597 5 20.3869 5 20.5195ZM6.5 22.0195C6.40111 22.0195 6.30444 22.0489 6.22221 22.1038C6.13999 22.1587 6.0759 22.2368 6.03806 22.3282C6.00022 22.4196 5.99031 22.5201 6.00961 22.6171C6.0289 22.7141 6.07652 22.8032 6.14645 22.8731C6.21637 22.943 6.30546 22.9906 6.40245 23.0099C6.49945 23.0292 6.59998 23.0193 6.69134 22.9815C6.7827 22.9436 6.86079 22.8795 6.91573 22.7973C6.97068 22.7151 7 22.6184 7 22.5195C7 22.3869 6.94732 22.2597 6.85355 22.166C6.75979 22.0722 6.63261 22.0195 6.5 22.0195ZM22.5 2.01953H22V1.51953C22 1.38692 21.9473 1.25975 21.8536 1.16598C21.7598 1.07221 21.6326 1.01953 21.5 1.01953C21.3674 1.01953 21.2402 1.07221 21.1464 1.16598C21.0527 1.25975 21 1.38692 21 1.51953V2.01953H20.5C20.3674 2.01953 20.2402 2.07221 20.1464 2.16598C20.0527 2.25975 20 2.38692 20 2.51953C20 2.65214 20.0527 2.77932 20.1464 2.87308C20.2402 2.96685 20.3674 3.01953 20.5 3.01953H21V3.51953C21 3.65214 21.0527 3.77932 21.1464 3.87308C21.2402 3.96685 21.3674 4.01953 21.5 4.01953C21.6326 4.01953 21.7598 3.96685 21.8536 3.87308C21.9473 3.77932 22 3.65214 22 3.51953V3.01953H22.5C22.6326 3.01953 22.7598 2.96685 22.8536 2.87308C22.9473 2.77932 23 2.65214 23 2.51953C23 2.38692 22.9473 2.25975 22.8536 2.16598C22.7598 2.07221 22.6326 2.01953 22.5 2.01953ZM19.92 6.88953C17.4088 6.48554 15.0643 5.3757 13.16 3.68953C13.1083 3.63844 13.0426 3.60371 12.9713 3.5897C12.8999 3.57569 12.826 3.58301 12.7588 3.61075C12.6916 3.63849 12.6341 3.68541 12.5934 3.74566C12.5527 3.80592 12.5306 3.87682 12.53 3.94953L12.61 20.1695C12.6133 20.2326 12.6322 20.2939 12.6651 20.3478C12.698 20.4017 12.7438 20.4466 12.7984 20.4784C12.853 20.5102 12.9146 20.5278 12.9778 20.5298C13.0409 20.5317 13.1035 20.5179 13.16 20.4895C15.6842 19.4157 17.7634 17.5081 19.0502 15.0856C20.337 12.663 20.7535 9.87223 20.23 7.17953C20.2162 7.10339 20.1789 7.03349 20.1232 6.97968C20.0676 6.92586 19.9966 6.89084 19.92 6.87953V6.88953Z" fill="#574EFA"/>
<path id="Vector_2" d="M14.39 8.33953C14.2615 7.95593 14.0156 7.62243 13.6873 7.38613C13.3589 7.14984 12.9645 7.02272 12.56 7.02272C12.1554 7.02272 11.7611 7.14984 11.4327 7.38613C11.1044 7.62243 10.8585 7.95593 10.73 8.33953L8.30999 13.1895C8.0324 13.6797 7.89408 14.2364 7.90999 14.7995C7.94122 15.3808 8.18619 15.9301 8.59782 16.3417C9.00945 16.7533 9.5587 16.9983 10.14 17.0295C11.0444 16.9644 11.8989 16.5902 12.56 15.9695C13.2211 16.5902 14.0756 16.9644 14.98 17.0295C15.5613 16.9983 16.1105 16.7533 16.5222 16.3417C16.9338 15.9301 17.1788 15.3808 17.21 14.7995C17.2259 14.2364 17.0876 13.6797 16.81 13.1895L14.39 8.33953ZM11.67 12.7195C11.67 12.6695 11.68 11.4895 12.56 11.4895C13.44 11.4895 13.44 12.6695 13.44 12.7195C13.3496 13.4079 13.0413 14.0492 12.56 14.5495C12.0751 14.0505 11.7631 13.4091 11.67 12.7195ZM14.98 16.0295C14.3408 15.9679 13.7398 15.6972 13.27 15.2595C13.9321 14.5669 14.3439 13.6729 14.44 12.7195C14.4677 12.4555 14.4431 12.1887 14.3676 11.9342C14.2921 11.6798 14.1672 11.4427 14.0001 11.2365C13.8329 11.0303 13.6267 10.8591 13.3934 10.7327C13.16 10.6062 12.904 10.527 12.64 10.4995L12.56 10.4895C12.2945 10.5061 12.035 10.5749 11.7961 10.692C11.5573 10.8091 11.344 10.9722 11.1684 11.1719C10.9928 11.3717 10.8584 11.6042 10.7728 11.856C10.6873 12.1079 10.6524 12.3741 10.67 12.6395L10.68 12.7195C10.7753 13.6731 11.1872 14.5673 11.85 15.2595C11.3802 15.6972 10.7792 15.9679 10.14 16.0295C9.82358 16.0005 9.52732 15.8616 9.30263 15.6369C9.07795 15.4122 8.93903 15.1159 8.90999 14.7995C8.89392 14.3931 8.99455 13.9906 9.19999 13.6395L11.62 8.78953C11.95 8.13953 12.17 8.02953 12.56 8.02953C12.95 8.02953 13.17 8.13953 13.5 8.78953L15.92 13.6395C16.1254 13.9906 16.2261 14.3931 16.21 14.7995C16.1809 15.1159 16.042 15.4122 15.8174 15.6369C15.5927 15.8616 15.2964 16.0005 14.98 16.0295ZM21.99 5.67953C21.9697 5.57602 21.9171 5.48159 21.8399 5.40974C21.7627 5.3379 21.6647 5.29232 21.56 5.27953C18.1818 4.94505 15.0675 3.3054 12.88 0.709527C12.8313 0.655841 12.7718 0.612941 12.7055 0.583585C12.6392 0.554228 12.5675 0.539062 12.495 0.539062C12.4225 0.539063 12.3508 0.554228 12.2845 0.583585C12.2182 0.612941 12.1587 0.655841 12.11 0.709527C9.92243 3.3054 6.80817 4.94505 3.42999 5.27953C3.32529 5.29232 3.22731 5.3379 3.15008 5.40974C3.07284 5.48159 3.02031 5.57602 2.99999 5.67953C1.41999 13.8695 4.54999 19.6995 12.3 22.9895C12.3617 23.0157 12.428 23.0291 12.495 23.0291C12.562 23.0291 12.6283 23.0157 12.69 22.9895C20.44 19.6995 23.56 13.8795 21.99 5.67953ZM12.5 21.9795C5.39999 18.8895 2.58999 13.7295 3.92999 6.21953C7.22181 5.80652 10.2595 4.2363 12.5 1.78953C14.7405 4.2363 17.7782 5.80652 21.07 6.21953C22.4 13.7295 19.59 18.8895 12.5 21.9795Z" fill="black"/>
</g>
<defs>
<clipPath id="clip0_1_28748">
<rect width="24" height="24" fill="white" transform="translate(0 0.0195312)"/>
</clipPath>
</defs>
</svg>
