<svg width="25" height="24" viewBox="0 0 25 24" fill="none" xmlns="http://www.w3.org/2000/svg">
<path d="M17.3503 0H7.64973C3.70735 0 0.5 3.20735 0.5 7.14973V16.8503C0.5 20.7926 3.70735 24 7.64973 24H17.3503C21.2926 24 24.5 20.7926 24.5 16.8503V7.14973C24.5 3.20735 21.2926 0 17.3503 0ZM22.0856 16.8503C22.0856 19.4655 19.9655 21.5856 17.3503 21.5856H7.64973C5.0345 21.5856 2.9144 19.4655 2.9144 16.8503V7.14973C2.9144 4.53446 5.0345 2.4144 7.64973 2.4144H17.3503C19.9655 2.4144 22.0856 4.53446 22.0856 7.14973V16.8503Z" fill="#0C051D"/>
<path d="M12.5002 5.79297C9.07754 5.79297 6.29297 8.57754 6.29297 12.0002C6.29297 15.4228 9.07754 18.2074 12.5002 18.2074C15.9229 18.2074 18.7075 15.4229 18.7075 12.0002C18.7075 8.57749 15.9229 5.79297 12.5002 5.79297ZM12.5002 15.7931C10.4055 15.7931 8.70737 14.095 8.70737 12.0002C8.70737 9.90547 10.4055 8.20737 12.5002 8.20737C14.595 8.20737 16.2931 9.90547 16.2931 12.0002C16.2931 14.0949 14.5949 15.7931 12.5002 15.7931Z" fill="#0C051D"/>
<path d="M18.7198 7.32625C19.5412 7.32625 20.2071 6.66034 20.2071 5.8389C20.2071 5.01747 19.5412 4.35156 18.7198 4.35156C17.8983 4.35156 17.2324 5.01747 17.2324 5.8389C17.2324 6.66034 17.8983 7.32625 18.7198 7.32625Z" fill="#0C051D"/>
</svg>
