<svg width="266" height="272" viewBox="0 0 266 272" fill="none" xmlns="http://www.w3.org/2000/svg">
<mask id="path-1-inside-1_317_10011" fill="white">
<path fill-rule="evenodd" clip-rule="evenodd" d="M168.784 87.391L139.305 125.899L139.307 125.897L129.592 138.203L129.54 138.158L119.253 151.434L113.255 159.033L113.25 159.038C107.801 164.984 101.26 169.916 93.9433 173.514C85.2698 177.787 75.506 180.184 65.1839 180.184C52.5885 180.184 40.8274 176.613 30.8583 170.428V202.704C30.8583 211.225 23.9505 218.133 15.4292 218.133C6.90787 218.133 0 211.225 0 202.704V115.037C0 112.615 0.13242 110.224 0.39064 107.871C3.96157 75.263 31.6087 49.8902 65.1839 49.8902C91.7385 49.8902 114.585 65.7606 124.744 88.5284L98.9621 121.187C99.3218 119.193 99.5116 117.137 99.5116 115.037C99.5116 96.0876 84.142 80.7289 65.1839 80.7289C46.2257 80.7289 30.8583 96.0898 30.8583 115.037C30.8583 133.985 46.2257 149.346 65.1839 149.346C70.1077 149.346 74.7865 148.311 79.0196 146.445C82.3499 144.978 85.4022 142.997 88.0771 140.6H88.0793C91.0257 137.964 94.2126 134.421 96.7837 130.742L126.263 92.2341L126.26 92.2363L135.976 79.9304L136.027 79.9752L146.314 66.6988L152.313 59.1L152.317 59.0956C157.766 53.1489 164.308 48.2168 171.624 44.6192C180.298 40.3467 190.062 37.949 200.384 37.949C212.979 37.949 224.74 41.5201 234.709 47.7051V15.4292C234.709 6.90787 241.617 -7.44956e-07 250.138 0C258.66 7.44956e-07 265.568 6.90789 265.568 15.4292V103.096C265.568 105.518 265.435 107.909 265.177 110.263C261.606 142.87 233.959 168.243 200.384 168.243C173.829 168.243 150.982 152.373 140.823 129.605L166.606 96.9464C166.246 98.9404 166.056 100.996 166.056 103.096C166.056 122.046 181.426 137.404 200.384 137.404C219.342 137.404 234.709 122.043 234.709 103.096C234.709 84.1486 219.342 68.7877 200.384 68.7877C195.46 68.7877 190.781 69.8222 186.548 71.6883C183.218 73.1551 180.165 75.1359 177.49 77.5335H177.488C174.542 80.1694 171.355 83.7118 168.784 87.391Z"/>
</mask>
<path d="M139.305 125.899L134.047 121.874L144.003 130.565L139.305 125.899ZM168.784 87.391L174.041 91.4159L174.129 91.3017L174.211 91.1839L168.784 87.391ZM139.307 125.897L144.504 130L134.609 121.231L139.307 125.897ZM129.592 138.203L125.246 143.198L130.486 147.757L134.789 142.306L129.592 138.203ZM129.54 138.158L133.886 133.163L128.599 128.563L124.306 134.103L129.54 138.158ZM119.253 151.434L124.45 155.537L124.469 155.514L124.487 155.49L119.253 151.434ZM113.255 159.033L117.941 163.711L118.213 163.438L118.452 163.136L113.255 159.033ZM113.25 159.038L108.564 154.36L108.464 154.46L108.368 154.564L113.25 159.038ZM93.9433 173.514L91.0216 167.572L91.0174 167.574L93.9433 173.514ZM30.8583 170.428L34.349 164.802L24.237 158.528V170.428H30.8583ZM0.39064 107.871L6.97244 108.593L6.97259 108.592L0.39064 107.871ZM124.744 88.5284L129.941 92.6312L132.423 89.4878L130.791 85.8305L124.744 88.5284ZM98.9621 121.187L92.4459 120.011L104.159 125.29L98.9621 121.187ZM79.0196 146.445L76.3507 140.385L76.3487 140.386L79.0196 146.445ZM88.0771 140.6V133.978H85.5439L83.6576 135.669L88.0771 140.6ZM88.0793 140.6V147.221H90.6088L92.4941 145.534L88.0793 140.6ZM96.7837 130.742L91.5261 126.717L91.4387 126.832L91.3564 126.949L96.7837 130.742ZM126.263 92.2341L131.52 96.2589L121.565 87.5684L126.263 92.2341ZM126.26 92.2363L121.064 88.1335L130.959 96.9021L126.26 92.2363ZM135.976 79.9304L140.322 74.9349L135.082 70.3767L130.779 75.8276L135.976 79.9304ZM136.027 79.9752L131.681 84.9707L136.969 89.5705L141.261 84.0307L136.027 79.9752ZM146.314 66.6988L141.117 62.5962L141.099 62.6197L141.08 62.6433L146.314 66.6988ZM152.313 59.1L147.631 54.418L147.356 54.6926L147.116 54.9973L152.313 59.1ZM152.317 59.0956L156.999 63.7776L157.102 63.6754L157.199 63.5688L152.317 59.0956ZM171.624 44.6192L174.546 50.561L174.55 50.559L171.624 44.6192ZM234.709 47.7051L231.219 53.3315L241.331 59.6052V47.7051H234.709ZM265.177 110.263L258.595 109.54L258.595 109.542L265.177 110.263ZM200.384 168.243L200.384 174.864H200.384V168.243ZM140.823 129.605L135.626 125.502L133.145 128.645L134.777 132.303L140.823 129.605ZM166.606 96.9464L173.122 98.122L161.409 92.8436L166.606 96.9464ZM186.548 71.6883L189.217 77.7479L189.219 77.747L186.548 71.6883ZM177.49 77.5335V84.1548H180.024L181.91 82.464L177.49 77.5335ZM177.488 77.5335V70.9122H174.959L173.074 72.5988L177.488 77.5335ZM144.562 129.924L174.041 91.4159L163.526 83.3662L134.047 121.874L144.562 129.924ZM134.609 121.231L134.607 121.233L144.003 130.565L144.005 130.563L134.609 121.231ZM134.789 142.306L144.504 130L134.11 121.794L124.395 134.1L134.789 142.306ZM125.194 143.154L125.246 143.198L133.938 133.207L133.886 133.163L125.194 143.154ZM124.487 155.49L134.774 142.214L124.306 134.103L114.019 147.379L124.487 155.49ZM118.452 163.136L124.45 155.537L114.056 147.332L108.058 154.931L118.452 163.136ZM117.936 163.716L117.941 163.711L108.569 154.355L108.564 154.36L117.936 163.716ZM96.8651 179.456C104.929 175.491 112.133 170.058 118.132 163.511L108.368 154.564C103.469 159.911 97.5906 164.342 91.0216 167.572L96.8651 179.456ZM65.1839 186.806C76.5416 186.806 87.3045 184.165 96.8692 179.454L91.0174 167.574C83.2351 171.408 74.4704 173.563 65.1839 173.563V186.806ZM27.3676 176.055C38.3546 182.871 51.3199 186.806 65.1839 186.806V173.563C53.8571 173.563 43.3001 170.355 34.349 164.802L27.3676 176.055ZM37.4796 202.704V170.428H24.237V202.704H37.4796ZM15.4292 224.755C27.6073 224.755 37.4796 214.882 37.4796 202.704H24.237C24.237 207.569 20.2936 211.512 15.4292 211.512V224.755ZM-6.6213 202.704C-6.6213 214.882 3.25103 224.755 15.4292 224.755V211.512C10.5647 211.512 6.6213 207.569 6.6213 202.704H-6.6213ZM-6.6213 115.037V202.704H6.6213V115.037H-6.6213ZM-6.19116 107.149C-6.47566 109.742 -6.6213 112.374 -6.6213 115.037H6.6213C6.6213 112.857 6.7405 110.707 6.97244 108.593L-6.19116 107.149ZM65.1839 43.2689C28.1966 43.2689 -2.2564 71.2186 -6.19131 107.15L6.97259 108.592C10.1795 79.3075 35.0208 56.5115 65.1839 56.5115V43.2689ZM130.791 85.8305C119.605 60.7617 94.444 43.2689 65.1839 43.2689V56.5115C89.0331 56.5115 109.565 70.7596 118.698 91.2264L130.791 85.8305ZM104.159 125.29L129.941 92.6312L119.547 84.4257L93.7651 117.084L104.159 125.29ZM92.8903 115.037C92.8903 116.737 92.7367 118.4 92.4459 120.011L105.478 122.362C105.907 119.986 106.133 117.537 106.133 115.037H92.8903ZM65.1839 87.3502C80.489 87.3502 92.8903 99.7482 92.8903 115.037H106.133C106.133 92.4269 87.7951 74.1076 65.1839 74.1076V87.3502ZM37.4796 115.037C37.4796 99.7496 49.8796 87.3502 65.1839 87.3502V74.1076C42.5718 74.1076 24.237 92.43 24.237 115.037H37.4796ZM65.1839 142.724C49.8796 142.724 37.4796 130.325 37.4796 115.037H24.237C24.237 137.644 42.5718 155.967 65.1839 155.967V142.724ZM76.3487 140.386C72.9421 141.888 69.1716 142.724 65.1839 142.724V155.967C71.0437 155.967 76.631 154.734 81.6904 152.504L76.3487 140.386ZM83.6576 135.669C81.497 137.606 79.0343 139.203 76.3507 140.385L81.6885 152.505C85.6656 150.753 89.3074 148.389 92.4966 145.53L83.6576 135.669ZM88.0793 133.978H88.0771V147.221H88.0793V133.978ZM91.3564 126.949C89.0795 130.208 86.2329 133.367 83.6646 135.665L92.4941 145.534C95.8184 142.56 99.3457 138.635 102.211 134.535L91.3564 126.949ZM121.005 88.2093L91.5261 126.717L102.041 134.767L131.52 96.2589L121.005 88.2093ZM130.959 96.9021L130.961 96.8998L121.565 87.5684L121.562 87.5706L130.959 96.9021ZM130.779 75.8276L121.064 88.1335L131.457 96.3392L141.173 84.0333L130.779 75.8276ZM140.373 74.9797L140.322 74.9349L131.63 84.9259L131.681 84.9707L140.373 74.9797ZM141.08 62.6433L130.793 75.9197L141.261 84.0307L151.548 70.7543L141.08 62.6433ZM147.116 54.9973L141.117 62.5962L151.511 70.8015L157.51 63.2027L147.116 54.9973ZM147.635 54.4136L147.631 54.418L156.995 63.782L156.999 63.7776L147.635 54.4136ZM168.703 38.6774C160.639 42.6424 153.435 48.0753 147.436 54.6224L157.199 63.5688C162.098 58.2225 167.977 53.7912 174.546 50.561L168.703 38.6774ZM200.384 31.3277C189.026 31.3277 178.263 33.9679 168.698 38.6795L174.55 50.559C182.332 46.7254 191.097 44.5703 200.384 44.5703V31.3277ZM238.2 42.0787C227.213 35.2622 214.248 31.3277 200.384 31.3277V44.5703C211.71 44.5703 222.267 47.7781 231.219 53.3315L238.2 42.0787ZM228.088 15.4292V47.7051H241.331V15.4292H228.088ZM250.138 -6.6213C237.96 -6.6213 228.088 3.25103 228.088 15.4292H241.331C241.331 10.5647 245.274 6.6213 250.138 6.6213L250.138 -6.6213ZM272.189 15.4292C272.189 3.25106 262.317 -6.6213 250.138 -6.6213L250.138 6.6213C255.003 6.6213 258.946 10.5647 258.946 15.4292H272.189ZM272.189 103.096V15.4292H258.946V103.096H272.189ZM271.759 110.985C272.043 108.392 272.189 105.76 272.189 103.096H258.946C258.946 105.276 258.827 107.426 258.595 109.54L271.759 110.985ZM200.384 174.864C237.371 174.864 267.824 146.915 271.759 110.983L258.595 109.542C255.388 138.826 230.547 161.622 200.384 161.622V174.864ZM134.777 132.303C145.962 157.372 171.124 174.864 200.384 174.864L200.384 161.622C176.534 161.622 156.002 147.374 146.87 126.907L134.777 132.303ZM161.409 92.8436L135.626 125.502L146.02 133.708L171.803 101.049L161.409 92.8436ZM172.677 103.096C172.677 101.396 172.831 99.7334 173.122 98.122L160.089 95.7708C159.661 98.1474 159.435 100.597 159.435 103.096H172.677ZM200.384 130.783C185.079 130.783 172.677 118.385 172.677 103.096H159.435C159.435 125.706 177.773 144.026 200.384 144.026V130.783ZM228.088 103.096C228.088 118.384 215.688 130.783 200.384 130.783V144.026C222.996 144.026 241.331 125.703 241.331 103.096H228.088ZM200.384 75.409C215.688 75.409 228.088 87.8084 228.088 103.096H241.331C241.331 80.4888 222.996 62.1664 200.384 62.1664V75.409ZM189.219 77.747C192.625 76.2452 196.396 75.409 200.384 75.409V62.1664C194.524 62.1664 188.937 63.3992 183.877 65.6296L189.219 77.747ZM181.91 82.464C184.071 80.5273 186.533 78.9298 189.217 77.7479L183.879 65.6287C179.902 67.3804 176.26 69.7444 173.071 72.603L181.91 82.464ZM177.488 84.1548H177.49V70.9122H177.488V84.1548ZM174.211 91.1839C176.488 87.9257 179.335 84.766 181.903 82.4683L173.074 72.5988C169.749 75.5728 166.222 79.498 163.357 83.5982L174.211 91.1839Z" fill="#632DF8" mask="url(#path-1-inside-1_317_10011)"/>
<g clip-path="url(#clip0_317_10011)">
<mask id="path-3-inside-2_317_10011" fill="white">
<path fill-rule="evenodd" clip-rule="evenodd" d="M168.784 87.391L139.305 125.899L139.307 125.897L129.592 138.203L129.54 138.158L119.253 151.434L113.255 159.033L113.25 159.038C107.801 164.984 101.26 169.916 93.9433 173.514C85.2698 177.787 75.506 180.184 65.1839 180.184C52.5885 180.184 40.8274 176.613 30.8583 170.428V202.704C30.8583 211.225 23.9505 218.133 15.4292 218.133C6.90789 218.133 1.52588e-05 211.225 1.52588e-05 202.704V115.037C1.52588e-05 112.615 0.132436 110.224 0.390655 107.871C3.96159 75.263 31.6087 49.8902 65.1839 49.8902C91.7385 49.8902 114.585 65.7606 124.744 88.5284L98.9621 121.187C99.3218 119.193 99.5116 117.137 99.5116 115.037C99.5116 96.0876 84.142 80.7289 65.1839 80.7289C46.2257 80.7289 30.8583 96.0898 30.8583 115.037C30.8583 133.985 46.2257 149.346 65.1839 149.346C70.1077 149.346 74.7866 148.311 79.0196 146.445C82.35 144.978 85.4022 142.997 88.0771 140.6H88.0793C91.0257 137.964 94.2126 134.421 96.7838 130.742L126.263 92.2341L126.261 92.2363L135.976 79.9304L136.027 79.9752L146.314 66.6988L152.313 59.1L152.317 59.0956C157.767 53.1489 164.308 48.2168 171.624 44.6192C180.298 40.3467 190.062 37.949 200.384 37.949C212.979 37.949 224.74 41.5201 234.709 47.7051V15.4292C234.709 6.90787 241.617 -7.44956e-07 250.138 0C258.66 7.44956e-07 265.568 6.90789 265.568 15.4292V103.096C265.568 105.518 265.435 107.909 265.177 110.263C261.606 142.87 233.959 168.243 200.384 168.243C173.829 168.243 150.982 152.373 140.823 129.605L166.606 96.9464C166.246 98.9404 166.056 100.996 166.056 103.096C166.056 122.046 181.426 137.404 200.384 137.404C219.342 137.404 234.709 122.043 234.709 103.096C234.709 84.1486 219.342 68.7877 200.384 68.7877C195.46 68.7877 190.781 69.8222 186.548 71.6883C183.218 73.1551 180.165 75.1359 177.491 77.5335H177.488C174.542 80.1694 171.355 83.7118 168.784 87.391Z"/>
</mask>
<path d="M139.305 125.899L134.047 121.874L144.003 130.565L139.305 125.899ZM168.784 87.391L174.041 91.4159L174.129 91.3017L174.211 91.1839L168.784 87.391ZM139.307 125.897L144.504 130L134.609 121.231L139.307 125.897ZM129.592 138.203L125.247 143.199L130.486 147.756L134.789 142.306L129.592 138.203ZM129.54 138.158L133.886 133.162L128.598 128.564L124.306 134.103L129.54 138.158ZM119.253 151.434L124.45 155.537L124.469 155.514L124.487 155.49L119.253 151.434ZM113.255 159.033L117.941 163.711L118.213 163.438L118.452 163.136L113.255 159.033ZM113.25 159.038L108.564 154.36L108.464 154.46L108.368 154.564L113.25 159.038ZM93.9433 173.514L91.0216 167.572L91.0174 167.574L93.9433 173.514ZM30.8583 170.428L34.3491 164.802L24.237 158.528V170.428H30.8583ZM0.390655 107.871L6.97246 108.593L6.9726 108.592L0.390655 107.871ZM124.744 88.5284L129.941 92.6312L132.423 89.4878L130.791 85.8305L124.744 88.5284ZM98.9621 121.187L92.446 120.011L104.159 125.29L98.9621 121.187ZM79.0196 146.445L76.3507 140.385L76.3487 140.386L79.0196 146.445ZM88.0771 140.6V133.978H85.5439L83.6576 135.669L88.0771 140.6ZM88.0793 140.6V147.221H90.6089L92.4941 145.534L88.0793 140.6ZM96.7838 130.742L91.5262 126.717L91.4388 126.832L91.3564 126.949L96.7838 130.742ZM126.263 92.2341L131.52 96.2589L121.565 87.5684L126.263 92.2341ZM126.261 92.2363L121.064 88.1335L130.959 96.9021L126.261 92.2363ZM135.976 79.9304L140.321 74.9347L135.082 70.3771L130.779 75.8276L135.976 79.9304ZM136.027 79.9752L131.682 84.971L136.969 89.5702L141.261 84.0307L136.027 79.9752ZM146.314 66.6988L141.117 62.5962L141.099 62.6197L141.08 62.6433L146.314 66.6988ZM152.313 59.1L147.631 54.418L147.357 54.6926L147.116 54.9973L152.313 59.1ZM152.317 59.0956L156.999 63.7776L157.102 63.6754L157.199 63.5688L152.317 59.0956ZM171.624 44.6192L174.546 50.561L174.55 50.559L171.624 44.6192ZM234.709 47.7051L231.219 53.3315L241.331 59.6052V47.7051H234.709ZM265.177 110.263L258.595 109.54L258.595 109.542L265.177 110.263ZM200.384 168.243L200.384 174.864H200.384V168.243ZM140.823 129.605L135.626 125.502L133.145 128.645L134.777 132.303L140.823 129.605ZM166.606 96.9464L173.122 98.122L161.409 92.8436L166.606 96.9464ZM186.548 71.6883L189.217 77.7479L189.219 77.747L186.548 71.6883ZM177.491 77.5335V84.1548H180.024L181.91 82.464L177.491 77.5335ZM177.488 77.5335V70.9122H174.959L173.074 72.5988L177.488 77.5335ZM144.563 129.924L174.041 91.4159L163.526 83.3662L134.047 121.874L144.563 129.924ZM134.609 121.231L134.607 121.233L144.003 130.565L144.005 130.563L134.609 121.231ZM134.789 142.306L144.504 130L134.11 121.794L124.395 134.1L134.789 142.306ZM125.195 143.154L125.247 143.199L133.937 133.207L133.886 133.162L125.195 143.154ZM124.487 155.49L134.774 142.214L124.306 134.103L114.019 147.379L124.487 155.49ZM118.452 163.136L124.45 155.537L114.056 147.332L108.058 154.931L118.452 163.136ZM117.936 163.716L117.941 163.711L108.569 154.355L108.564 154.36L117.936 163.716ZM96.8651 179.456C104.929 175.491 112.133 170.058 118.132 163.511L108.368 154.564C103.469 159.911 97.5906 164.342 91.0216 167.572L96.8651 179.456ZM65.1839 186.806C76.5416 186.806 87.3045 184.165 96.8692 179.454L91.0174 167.574C83.2351 171.408 74.4704 173.563 65.1839 173.563V186.806ZM27.3676 176.055C38.3546 182.871 51.3199 186.806 65.1839 186.806V173.563C53.8571 173.563 43.3001 170.355 34.3491 164.802L27.3676 176.055ZM37.4796 202.704V170.428H24.237V202.704H37.4796ZM15.4292 224.755C27.6073 224.755 37.4796 214.882 37.4796 202.704H24.237C24.237 207.569 20.2936 211.512 15.4292 211.512V224.755ZM-6.62128 202.704C-6.62128 214.882 3.25104 224.755 15.4292 224.755V211.512C10.5647 211.512 6.62131 207.569 6.62131 202.704H-6.62128ZM-6.62128 115.037V202.704H6.62131V115.037H-6.62128ZM-6.19115 107.149C-6.47564 109.742 -6.62128 112.374 -6.62128 115.037H6.62131C6.62131 112.857 6.74051 110.707 6.97246 108.593L-6.19115 107.149ZM65.1839 43.2689C28.1966 43.2689 -2.25638 71.2186 -6.19129 107.15L6.9726 108.592C10.1796 79.3075 35.0208 56.5115 65.1839 56.5115V43.2689ZM130.791 85.8305C119.605 60.7617 94.444 43.2689 65.1839 43.2689V56.5115C89.0331 56.5115 109.565 70.7596 118.698 91.2264L130.791 85.8305ZM104.159 125.29L129.941 92.6312L119.547 84.4257L93.7651 117.084L104.159 125.29ZM92.8903 115.037C92.8903 116.737 92.7367 118.4 92.446 120.011L105.478 122.362C105.907 119.986 106.133 117.537 106.133 115.037H92.8903ZM65.1839 87.3502C80.489 87.3502 92.8903 99.7482 92.8903 115.037H106.133C106.133 92.4269 87.7951 74.1076 65.1839 74.1076V87.3502ZM37.4796 115.037C37.4796 99.7496 49.8796 87.3502 65.1839 87.3502V74.1076C42.5718 74.1076 24.237 92.43 24.237 115.037H37.4796ZM65.1839 142.724C49.8796 142.724 37.4796 130.325 37.4796 115.037H24.237C24.237 137.644 42.5718 155.967 65.1839 155.967V142.724ZM76.3487 140.386C72.9421 141.888 69.1716 142.724 65.1839 142.724V155.967C71.0438 155.967 76.631 154.734 81.6905 152.504L76.3487 140.386ZM83.6576 135.669C81.497 137.606 79.0343 139.203 76.3507 140.385L81.6885 152.505C85.6656 150.753 89.3074 148.389 92.4966 145.53L83.6576 135.669ZM88.0793 133.978H88.0771V147.221H88.0793V133.978ZM91.3564 126.949C89.0795 130.208 86.2329 133.367 83.6646 135.665L92.4941 145.534C95.8184 142.56 99.3457 138.635 102.211 134.535L91.3564 126.949ZM121.005 88.2093L91.5262 126.717L102.041 134.767L131.52 96.2589L121.005 88.2093ZM130.959 96.9021L130.961 96.8998L121.565 87.5684L121.562 87.5706L130.959 96.9021ZM130.779 75.8276L121.064 88.1335L131.457 96.3392L141.173 84.0333L130.779 75.8276ZM140.373 74.9795L140.321 74.9347L131.63 84.9262L131.682 84.971L140.373 74.9795ZM141.08 62.6433L130.793 75.9197L141.261 84.0307L151.548 70.7543L141.08 62.6433ZM147.116 54.9973L141.117 62.5962L151.511 70.8015L157.51 63.2027L147.116 54.9973ZM147.635 54.4136L147.631 54.418L156.995 63.782L156.999 63.7776L147.635 54.4136ZM168.703 38.6774C160.639 42.6424 153.435 48.0753 147.436 54.6224L157.199 63.5688C162.098 58.2225 167.977 53.7912 174.546 50.561L168.703 38.6774ZM200.384 31.3277C189.026 31.3277 178.263 33.9679 168.698 38.6795L174.55 50.559C182.333 46.7254 191.097 44.5703 200.384 44.5703V31.3277ZM238.2 42.0787C227.213 35.2622 214.248 31.3277 200.384 31.3277V44.5703C211.711 44.5703 222.267 47.7781 231.219 53.3315L238.2 42.0787ZM228.088 15.4292V47.7051H241.331V15.4292H228.088ZM250.138 -6.6213C237.96 -6.6213 228.088 3.25103 228.088 15.4292H241.331C241.331 10.5647 245.274 6.6213 250.138 6.6213L250.138 -6.6213ZM272.189 15.4292C272.189 3.25106 262.317 -6.6213 250.138 -6.6213L250.138 6.6213C255.003 6.6213 258.946 10.5647 258.946 15.4292H272.189ZM272.189 103.096V15.4292H258.946V103.096H272.189ZM271.759 110.985C272.043 108.392 272.189 105.76 272.189 103.096H258.946C258.946 105.276 258.827 107.426 258.595 109.54L271.759 110.985ZM200.384 174.864C237.371 174.864 267.824 146.915 271.759 110.983L258.595 109.542C255.388 138.826 230.547 161.622 200.384 161.622V174.864ZM134.777 132.303C145.962 157.372 171.124 174.864 200.384 174.864L200.384 161.622C176.535 161.622 156.002 147.374 146.87 126.907L134.777 132.303ZM161.409 92.8436L135.626 125.502L146.02 133.708L171.803 101.049L161.409 92.8436ZM172.677 103.096C172.677 101.396 172.831 99.7334 173.122 98.122L160.089 95.7708C159.661 98.1474 159.435 100.597 159.435 103.096H172.677ZM200.384 130.783C185.079 130.783 172.677 118.385 172.677 103.096H159.435C159.435 125.706 177.773 144.026 200.384 144.026V130.783ZM228.088 103.096C228.088 118.384 215.688 130.783 200.384 130.783V144.026C222.996 144.026 241.331 125.703 241.331 103.096H228.088ZM200.384 75.409C215.688 75.409 228.088 87.8084 228.088 103.096H241.331C241.331 80.4888 222.996 62.1664 200.384 62.1664V75.409ZM189.219 77.747C192.626 76.2452 196.396 75.409 200.384 75.409V62.1664C194.524 62.1664 188.937 63.3992 183.877 65.6296L189.219 77.747ZM181.91 82.464C184.071 80.5273 186.533 78.9298 189.217 77.7479L183.879 65.6287C179.902 67.3804 176.26 69.7444 173.071 72.603L181.91 82.464ZM177.488 84.1548H177.491V70.9122H177.488V84.1548ZM174.211 91.1839C176.488 87.9257 179.335 84.766 181.903 82.4683L173.074 72.5988C169.749 75.5728 166.222 79.498 163.357 83.5982L174.211 91.1839Z" fill="#EBAD4D" mask="url(#path-3-inside-2_317_10011)"/>
</g>
<path d="M234.606 271H229.302V239.729H234.606L244.702 264.626L254.797 239.729H260.187V271H254.883V261.375C254.883 255.087 254.883 253.247 255.182 251.023L247.225 271H242.178L234.264 251.066C234.563 252.948 234.606 255.899 234.606 259.792V271Z" fill="#632DF8"/>
<path d="M202.879 271H197.19L208.483 239.729H214.087L225.38 271H219.605L217.082 263.771H205.403L202.879 271ZM210.579 249.055L207.029 259.151H215.499L211.905 249.055C211.649 248.242 211.349 247.301 211.264 246.659C211.135 247.258 210.879 248.199 210.579 249.055Z" fill="#632DF8"/>
<path d="M194.248 271H174.827V239.729H194.248V244.777H180.302V252.819H192.793V257.653H180.302V265.952H194.248V271Z" fill="#632DF8"/>
<path d="M151.645 271H146.169V239.729H158.104C165.205 239.729 169.355 243.323 169.355 249.483C169.355 253.675 167.387 256.669 163.708 258.167L169.654 271H163.665L158.361 259.322H151.645V271ZM151.645 244.606V254.488H158.104C161.569 254.488 163.622 252.648 163.622 249.483C163.622 246.36 161.569 244.606 158.104 244.606H151.645Z" fill="#632DF8"/>
<path d="M125.754 271H114.503V239.729H125.455C134.695 239.729 141.068 246.103 141.068 255.429C141.068 264.626 134.823 271 125.754 271ZM124.941 244.777H119.979V265.952H125.241C131.486 265.952 135.293 261.931 135.293 255.429C135.293 248.798 131.401 244.777 124.941 244.777Z" fill="#EBAD4D"/>
<path d="M108.567 271H89.1459V239.729H108.567V244.777H94.6214V252.819H107.113V257.653H94.6214V265.952H108.567V271Z" fill="#632DF8"/>
<path d="M69.9049 271.513C60.7932 271.513 54.8899 265.182 54.8899 255.386C54.8899 245.676 61.0071 239.216 70.1616 239.216C77.5621 239.216 83.0805 243.537 84.1499 250.253H78.3749C77.3055 246.617 74.1827 244.478 70.0332 244.478C64.2582 244.478 60.6221 248.67 60.6221 255.343C60.6221 261.974 64.301 266.252 70.0332 266.252C74.2682 266.252 77.5194 264.027 78.546 260.562H84.2355C83.0377 267.15 77.3055 271.513 69.9049 271.513Z" fill="#632DF8"/>
<path d="M31.81 271H26.1205L37.4138 239.729H43.0177L54.3111 271H48.5361L46.0122 263.771H34.3338L31.81 271ZM39.51 249.055L35.9594 259.151H44.4294L40.8361 249.055C40.5794 248.242 40.28 247.301 40.1944 246.659C40.0661 247.258 39.8094 248.199 39.51 249.055Z" fill="#632DF8"/>
<path d="M15.8278 260.22H8.94055V271H3.465V239.729H15.8278C22.1161 239.729 26.18 243.836 26.18 249.953C26.18 255.985 22.0733 260.22 15.8278 260.22ZM14.7583 244.606H8.94055V255.343H14.6728C18.4372 255.343 20.4478 253.333 20.4478 249.911C20.4478 246.488 18.3944 244.606 14.7583 244.606Z" fill="#EBAD4D"/>
<defs>
<clipPath id="clip0_317_10011">
<rect width="102.63" height="157.256" fill="white" transform="translate(81.1109 29.7959)"/>
</clipPath>
</defs>
</svg>
