<svg width="33" height="33" viewBox="0 0 33 33" fill="none" xmlns="http://www.w3.org/2000/svg">
<path d="M23.4724 9.04796L22.7313 8.93281C22.6945 9.16927 22.7728 9.40907 22.9421 9.57829C23.1113 9.7475 23.3511 9.8258 23.5875 9.78907L23.4724 9.04796ZM22.0905 12.9048L22.6505 12.406C22.5132 12.2518 22.3185 12.161 22.1121 12.1551C21.9058 12.1491 21.7061 12.2285 21.5601 12.3744L22.0905 12.9048ZM13.3847 21.6105L12.8544 21.0801C12.7084 21.2261 12.6291 21.4258 12.6351 21.6321C12.641 21.8385 12.7318 22.0333 12.8859 22.1706L13.3847 21.6105ZM9.52794 22.9924L10.269 23.1075C10.3058 22.8711 10.2275 22.6313 10.0583 22.4621C9.88905 22.2929 9.64925 22.2146 9.41279 22.2513L9.52794 22.9924ZM10.9099 19.1356L10.3498 19.6344C10.4871 19.7886 10.6818 19.8793 10.8882 19.8853C11.0945 19.8913 11.2942 19.8119 11.4402 19.6659L10.9099 19.1356ZM19.6156 10.4299L20.1459 10.9602C20.2919 10.8142 20.3712 10.6146 20.3653 10.4082C20.3593 10.2019 20.2685 10.0071 20.1144 9.86981L19.6156 10.4299ZM24.2135 9.1631C24.2377 9.00745 24.2502 8.84835 24.2502 8.68685H22.7502C22.7502 8.77098 22.7437 8.85308 22.7313 8.93281L24.2135 9.1631ZM23.8335 8.27018C23.672 8.27018 23.5129 8.28267 23.3572 8.30685L23.5875 9.78907C23.6673 9.77668 23.7494 9.77018 23.8335 9.77018V8.27018ZM26.9168 11.3535C26.9168 9.65064 25.5364 8.27018 23.8335 8.27018V9.77018C24.7079 9.77018 25.4168 10.4791 25.4168 11.3535H26.9168ZM23.8335 14.4368C25.5364 14.4368 26.9168 13.0564 26.9168 11.3535H25.4168C25.4168 12.228 24.7079 12.9368 23.8335 12.9368V14.4368ZM21.5304 13.4036C22.094 14.0365 22.9175 14.4368 23.8335 14.4368V12.9368C23.3632 12.9368 22.9416 12.7328 22.6505 12.406L21.5304 13.4036ZM13.9151 22.1408L22.6208 13.4351L21.5601 12.3744L12.8544 21.0801L13.9151 22.1408ZM14.9168 23.3535C14.9168 22.4375 14.5164 21.614 13.8836 21.0504L12.8859 22.1706C13.2128 22.4616 13.4168 22.8833 13.4168 23.3535H14.9168ZM11.8335 26.4368C13.5364 26.4368 14.9168 25.0564 14.9168 23.3535H13.4168C13.4168 24.228 12.7079 24.9368 11.8335 24.9368V26.4368ZM8.75016 23.3535C8.75016 25.0564 10.1306 26.4368 11.8335 26.4368V24.9368C10.959 24.9368 10.2502 24.228 10.2502 23.3535H8.75016ZM8.78683 22.8773C8.76265 23.0329 8.75016 23.192 8.75016 23.3535H10.2502C10.2502 23.2694 10.2567 23.1873 10.269 23.1075L8.78683 22.8773ZM9.16683 23.7702C9.32833 23.7702 9.48743 23.7577 9.64308 23.7335L9.41279 22.2513C9.33306 22.2637 9.25096 22.2702 9.16683 22.2702V23.7702ZM6.0835 20.6868C6.0835 22.3897 7.46395 23.7702 9.16683 23.7702V22.2702C8.29238 22.2702 7.5835 21.5613 7.5835 20.6868H6.0835ZM9.16683 17.6035C7.46395 17.6035 6.0835 18.984 6.0835 20.6868H7.5835C7.5835 19.8124 8.29238 19.1035 9.16683 19.1035V17.6035ZM11.4699 18.6368C10.9063 18.0039 10.0828 17.6035 9.16683 17.6035V19.1035C9.63709 19.1035 10.0587 19.3076 10.3498 19.6344L11.4699 18.6368ZM19.0853 9.89956L10.3795 18.6053L11.4402 19.6659L20.1459 10.9602L19.0853 9.89956ZM18.0835 8.68685C18.0835 9.60286 18.4839 10.4263 19.1168 10.99L20.1144 9.86981C19.7876 9.57873 19.5835 9.1571 19.5835 8.68685H18.0835ZM21.1668 5.60352C19.464 5.60352 18.0835 6.98397 18.0835 8.68685H19.5835C19.5835 7.8124 20.2924 7.10352 21.1668 7.10352V5.60352ZM24.2502 8.68685C24.2502 6.98397 22.8697 5.60352 21.1668 5.60352V7.10352C22.0413 7.10352 22.7502 7.8124 22.7502 8.68685H24.2502Z" fill="#141414"/>
</svg>
