<svg width="16" height="16" viewBox="0 0 16 16" fill="none" xmlns="http://www.w3.org/2000/svg">
<g id="zoom/search" clip-path="url(#clip0_6518_33459)">
<path id="Icon" d="M14.7432 15.9231C15.0693 16.2492 15.598 16.2492 15.9241 15.9231C16.2502 15.597 16.2502 15.0683 15.9241 14.7422L14.7432 15.9231ZM11.9104 6.70523C11.9104 9.57944 9.58042 11.9094 6.70621 11.9094V13.5794C10.5027 13.5794 13.5804 10.5018 13.5804 6.70523H11.9104ZM6.70621 11.9094C3.832 11.9094 1.50199 9.57944 1.50199 6.70523H-0.168008C-0.168008 10.5018 2.90968 13.5794 6.70621 13.5794V11.9094ZM1.50199 6.70523C1.50199 3.83102 3.832 1.50102 6.70621 1.50102V-0.168984C2.90968 -0.168984 -0.168008 2.90871 -0.168008 6.70523H1.50199ZM6.70621 1.50102C9.58042 1.50102 11.9104 3.83102 11.9104 6.70523H13.5804C13.5804 2.90871 10.5027 -0.168984 6.70621 -0.168984V1.50102ZM10.4295 11.6094L14.7432 15.9231L15.9241 14.7422L11.6104 10.4285L10.4295 11.6094Z" fill="black"/>
</g>
<defs>
<clipPath id="clip0_6518_33459">
<rect width="16" height="16" fill="white"/>
</clipPath>
</defs>
</svg>
