<svg width="22" height="23" viewBox="0 0 22 23" fill="none" xmlns="http://www.w3.org/2000/svg">
<g id="share/double" clip-path="url(#clip0_269_4304)">
<path id="Icon" d="M13.9149 5.04876L20.7293 10.9821C20.9256 11.1531 21.0238 11.2386 21.0598 11.3404C21.0914 11.4297 21.0914 11.5273 21.0598 11.6166C21.0238 11.7184 20.9256 11.8039 20.7293 11.9749L13.9149 17.9082M8.26919 9.05522V5.54514C8.26919 5.09285 8.26919 4.8667 8.35963 4.75398C8.43823 4.65601 8.55703 4.60051 8.6814 4.60364C8.8245 4.60725 8.99353 4.75442 9.33159 5.04878L16.1459 10.9821C16.3423 11.1531 16.4405 11.2386 16.4765 11.3404C16.5081 11.4297 16.5081 11.5274 16.4765 11.6167C16.4405 11.7184 16.3423 11.8039 16.1459 11.9749L9.33159 17.9083C8.99353 18.2026 8.8245 18.3498 8.6814 18.3534C8.55703 18.3565 8.43823 18.301 8.35963 18.2031C8.26919 18.0903 8.26919 17.8642 8.26919 17.4119V13.9877C7.1095 14.0677 5.97383 14.3709 4.92325 14.8829C3.73164 15.4636 2.67767 16.2991 1.83352 17.3321V16.832C1.83451 14.8911 2.53889 13.0185 3.81225 11.5716C4.98024 10.2443 6.55193 9.36041 8.26919 9.05522Z" stroke="#272D37" stroke-width="2" stroke-linecap="round" stroke-linejoin="round"/>
</g>
<defs>
<clipPath id="clip0_269_4304">
<rect width="22" height="22" fill="white" transform="matrix(-1 0 0 1 22 0.0195312)"/>
</clipPath>
</defs>
</svg>
