<svg width="16" height="17" viewBox="0 0 16 17" fill="none" xmlns="http://www.w3.org/2000/svg">
<g id=".Status Icon" clip-path="url(#clip0_1_28727)">
<g id="Icon">
<path d="M7.24565 0.995359C7.66506 0.582276 8.33461 0.582276 8.75402 0.995358L9.37607 1.60803C9.6324 1.86048 9.99617 1.96823 10.3471 1.89564L11.1988 1.71948C11.773 1.60071 12.3363 1.96586 12.4677 2.5421L12.6626 3.39676C12.743 3.74893 12.9912 4.03797 13.3254 4.16829L14.1362 4.48457C14.683 4.69782 14.9611 5.31219 14.7628 5.86864L14.4688 6.69394C14.3476 7.03402 14.4016 7.41257 14.6128 7.70443L15.1255 8.41273C15.4711 8.8903 15.3758 9.55883 14.9108 9.91881L14.2211 10.4527C13.9369 10.6727 13.7794 11.0206 13.8007 11.3814L13.8523 12.2568C13.8872 12.8471 13.4487 13.3575 12.8646 13.4067L11.9982 13.4797C11.6412 13.5098 11.3223 13.7166 11.1468 14.0317L10.7211 14.7963C10.434 15.3119 9.79161 15.5021 9.27382 15.225L8.50585 14.8139C8.1894 14.6445 7.81027 14.6445 7.49382 14.8139L6.72586 15.225C6.20807 15.5021 5.56564 15.3119 5.27859 14.7963L4.85285 14.0317C4.67742 13.7166 4.35847 13.5098 4.00148 13.4797L3.13511 13.4067C2.55098 13.3575 2.11252 12.8471 2.14734 12.2568L2.19899 11.3814C2.22027 11.0206 2.06278 10.6727 1.77858 10.4527L1.08888 9.91881C0.623863 9.55883 0.528577 8.8903 0.874219 8.41273L1.38686 7.70443C1.5981 7.41257 1.65206 7.03401 1.53089 6.69394L1.23683 5.86864C1.03857 5.31219 1.31671 4.69782 1.86343 4.48457L2.67431 4.16829C3.00844 4.03797 3.25671 3.74893 3.33704 3.39676L3.53199 2.5421C3.66343 1.96586 4.22669 1.60071 4.80091 1.71948L5.65257 1.89564C6.00351 1.96823 6.36728 1.86048 6.6236 1.60803L7.24565 0.995359Z" fill="#574EFA"/>
<path fill-rule="evenodd" clip-rule="evenodd" d="M11.1379 6.21414C11.3983 6.47449 11.3983 6.8966 11.1379 7.15695L7.70694 10.5879C7.31642 10.9784 6.68325 10.9784 6.29273 10.5879L4.86177 9.15695C4.60142 8.8966 4.60142 8.47449 4.86177 8.21414C5.12212 7.95379 5.54423 7.95379 5.80457 8.21414L6.99984 9.4094L10.1951 6.21414C10.4554 5.95379 10.8776 5.95379 11.1379 6.21414Z" fill="white"/>
</g>
</g>
<defs>
<clipPath id="clip0_1_28727">
<rect width="16" height="16" fill="white" transform="translate(0 0.0195312)"/>
</clipPath>
</defs>
</svg>
