<svg width="32" height="33" viewBox="0 0 32 33" fill="none" xmlns="http://www.w3.org/2000/svg">
<path d="M16.6668 24.0202C16.6668 24.3884 16.3684 24.6868 16.0002 24.6868C15.632 24.6868 15.3335 24.3884 15.3335 24.0202C15.3335 23.652 15.632 23.3535 16.0002 23.3535C16.3684 23.3535 16.6668 23.652 16.6668 24.0202Z" stroke="black"/>
<path d="M12.6665 19.4371C13.6019 18.7556 14.7539 18.3535 15.9998 18.3535C17.2458 18.3535 18.3978 18.7556 19.3332 19.4371" stroke="black" stroke-width="1.5" stroke-linecap="round" stroke-linejoin="round"/>
<path d="M22.2837 14.9896C20.5024 13.7478 18.3364 13.0195 16.0003 13.0195C13.6641 13.0195 11.4981 13.7478 9.7168 14.9896" stroke="black" stroke-width="1.5" stroke-linecap="round" stroke-linejoin="round"/>
<path d="M6.6665 10.6132C9.31212 8.76778 12.5296 7.68555 15.9998 7.68555C19.4701 7.68555 22.6876 8.76778 25.3332 10.6132" stroke="black" stroke-width="1.5" stroke-linecap="round" stroke-linejoin="round"/>
</svg>
