<svg width="63" height="63" viewBox="0 0 63 63" fill="none" xmlns="http://www.w3.org/2000/svg">
<path d="M31.7779 5.48145C37.5009 5.48145 42.9895 7.75489 47.0363 11.8017C51.083 15.8484 53.3565 21.337 53.3565 27.06C53.3565 36.1783 46.9493 46.1155 34.301 56.9778C33.5977 57.582 32.701 57.9138 31.7738 57.913C30.8466 57.9122 29.9505 57.5788 29.2483 56.9734L28.4117 56.2475C16.3233 45.6685 10.1994 35.9747 10.1994 27.06C10.1994 21.337 12.4728 15.8484 16.5196 11.8017C20.5663 7.75489 26.0549 5.48145 31.7779 5.48145ZM31.7779 18.7606C29.5768 18.7606 27.4658 19.635 25.9093 21.1914C24.3529 22.7479 23.4785 24.8589 23.4785 27.06C23.4785 29.2611 24.3529 31.3721 25.9093 32.9286C27.4658 34.485 29.5768 35.3594 31.7779 35.3594C33.9791 35.3594 36.0901 34.485 37.6465 32.9286C39.203 31.3721 40.0774 29.2611 40.0774 27.06C40.0774 24.8589 39.203 22.7479 37.6465 21.1914C36.0901 19.635 33.9791 18.7606 31.7779 18.7606Z" fill="url(#paint0_linear_1_10465)"/>
<defs>
<linearGradient id="paint0_linear_1_10465" x1="31.7779" y1="5.48145" x2="31.7779" y2="57.913" gradientUnits="userSpaceOnUse">
<stop stop-color="#574EFA"/>
<stop offset="1" stop-color="#7A73FF"/>
</linearGradient>
</defs>
</svg>
