<svg width="47" height="45" viewBox="0 0 47 45" fill="none" xmlns="http://www.w3.org/2000/svg">
<path d="M39.3333 8.66667H28.5V7C28.5 4.24333 26.2567 2 23.5 2C20.7433 2 18.5 4.24333 18.5 7V8.66667H7.66667C5.36833 8.66667 3.5 10.535 3.5 12.8333V42H43.5V12.8333C43.5 10.535 41.6317 8.66667 39.3333 8.66667ZM20.1667 7C20.1667 5.16167 21.6617 3.66667 23.5 3.66667C25.3383 3.66667 26.8333 5.16167 26.8333 7V13.6667H20.1667V7ZM41.8333 40.3333H5.16667V12.8333C5.16667 11.455 6.28833 10.3333 7.66667 10.3333H18.5V15.3333H28.5V10.3333H39.3333C40.7117 10.3333 41.8333 11.455 41.8333 12.8333V40.3333Z" fill="#CF2DF8"/>
<path fill-rule="evenodd" clip-rule="evenodd" d="M43.5 42H3.5V12.8333C3.5 10.535 5.36833 8.66667 7.66667 8.66667H18.5V7C18.5 4.24333 20.7433 2 23.5 2C26.2567 2 28.5 4.24333 28.5 7V8.66667H39.3333C41.6317 8.66667 43.5 10.535 43.5 12.8333V42ZM29 8.16667H39.3333C41.9078 8.16667 44 10.2589 44 12.8333V42.5H3V12.8333C3 10.2589 5.09219 8.16667 7.66667 8.16667H18V7C18 3.96719 20.4672 1.5 23.5 1.5C26.5328 1.5 29 3.96719 29 7V8.16667ZM28.5 15.3333H18.5V10.3333H7.66667C6.28833 10.3333 5.16667 11.455 5.16667 12.8333V40.3333H41.8333V12.8333C41.8333 11.455 40.7117 10.3333 39.3333 10.3333H28.5V15.3333ZM29 10.8333V15.8333H18V10.8333H7.66667C6.56448 10.8333 5.66667 11.7311 5.66667 12.8333V39.8333H41.3333V12.8333C41.3333 11.7311 40.4355 10.8333 39.3333 10.8333H29ZM23.5 4.16667C21.9378 4.16667 20.6667 5.43781 20.6667 7V13.1667H26.3333V7C26.3333 5.43781 25.0622 4.16667 23.5 4.16667ZM23.5 3.66667C21.6617 3.66667 20.1667 5.16167 20.1667 7V13.6667H26.8333V7C26.8333 5.16167 25.3383 3.66667 23.5 3.66667Z" fill="#CF2DF8"/>
<path d="M10.1641 35.334H21.8307V20.334H10.1641V35.334ZM11.8307 22.0007H20.1641V33.6673H11.8307V22.0007ZM25.1641 27.0007H36.8307V28.6673H25.1641V27.0007ZM25.1641 20.334H36.8307V22.0007H25.1641V20.334ZM25.1641 33.6673H33.4974V35.334H25.1641V33.6673Z" fill="#671FFF"/>
</svg>
