<svg width="24" height="24" viewBox="0 0 24 24" fill="none" xmlns="http://www.w3.org/2000/svg">
<path d="M5 20.5C5 20.6326 4.94732 20.7598 4.85355 20.8536C4.75979 20.9473 4.63261 21 4.5 21H4V21.5C4 21.6326 3.94732 21.7598 3.85355 21.8536C3.75979 21.9473 3.63261 22 3.5 22C3.36739 22 3.24021 21.9473 3.14645 21.8536C3.05268 21.7598 3 21.6326 3 21.5V21H2.5C2.36739 21 2.24021 20.9473 2.14645 20.8536C2.05268 20.7598 2 20.6326 2 20.5C2 20.3674 2.05268 20.2402 2.14645 20.1464C2.24021 20.0527 2.36739 20 2.5 20H3V19.5C3 19.3674 3.05268 19.2402 3.14645 19.1464C3.24021 19.0527 3.36739 19 3.5 19C3.63261 19 3.75979 19.0527 3.85355 19.1464C3.94732 19.2402 4 19.3674 4 19.5V20H4.5C4.63261 20 4.75979 20.0527 4.85355 20.1464C4.94732 20.2402 5 20.3674 5 20.5ZM6.5 22C6.40111 22 6.30444 22.0293 6.22221 22.0843C6.13999 22.1392 6.0759 22.2173 6.03806 22.3087C6.00022 22.4 5.99031 22.5006 6.00961 22.5975C6.0289 22.6945 6.07652 22.7836 6.14645 22.8536C6.21637 22.9235 6.30546 22.9711 6.40245 22.9904C6.49945 23.0097 6.59998 22.9998 6.69134 22.9619C6.7827 22.9241 6.86079 22.86 6.91573 22.7778C6.97068 22.6956 7 22.5989 7 22.5C7 22.3674 6.94732 22.2402 6.85355 22.1464C6.75979 22.0527 6.63261 22 6.5 22ZM22.5 2H22V1.5C22 1.36739 21.9473 1.24021 21.8536 1.14645C21.7598 1.05268 21.6326 1 21.5 1C21.3674 1 21.2402 1.05268 21.1464 1.14645C21.0527 1.24021 21 1.36739 21 1.5V2H20.5C20.3674 2 20.2402 2.05268 20.1464 2.14645C20.0527 2.24021 20 2.36739 20 2.5C20 2.63261 20.0527 2.75979 20.1464 2.85355C20.2402 2.94732 20.3674 3 20.5 3H21V3.5C21 3.63261 21.0527 3.75979 21.1464 3.85355C21.2402 3.94732 21.3674 4 21.5 4C21.6326 4 21.7598 3.94732 21.8536 3.85355C21.9473 3.75979 22 3.63261 22 3.5V3H22.5C22.6326 3 22.7598 2.94732 22.8536 2.85355C22.9473 2.75979 23 2.63261 23 2.5C23 2.36739 22.9473 2.24021 22.8536 2.14645C22.7598 2.05268 22.6326 2 22.5 2ZM19.92 6.87C17.4088 6.46601 15.0643 5.35617 13.16 3.67C13.1083 3.6189 13.0426 3.58418 12.9713 3.57017C12.8999 3.55616 12.826 3.56348 12.7588 3.59122C12.6916 3.61895 12.6341 3.66588 12.5934 3.72613C12.5527 3.78639 12.5306 3.85729 12.53 3.93L12.61 20.15C12.6133 20.2131 12.6322 20.2744 12.6651 20.3283C12.698 20.3822 12.7438 20.4271 12.7984 20.4589C12.853 20.4906 12.9146 20.5083 12.9778 20.5102C13.0409 20.5122 13.1035 20.4983 13.16 20.47C15.6842 19.3961 17.7634 17.4886 19.0502 15.066C20.337 12.6435 20.7535 9.8527 20.23 7.16C20.2162 7.08386 20.1789 7.01396 20.1232 6.96015C20.0676 6.90633 19.9966 6.87131 19.92 6.86V6.87Z" fill="#574EFA"/>
<path d="M14.3895 8.32C14.261 7.9364 14.0151 7.60289 13.6868 7.3666C13.3584 7.13031 12.9641 7.00318 12.5595 7.00318C12.1549 7.00318 11.7606 7.13031 11.4322 7.3666C11.1039 7.60289 10.858 7.9364 10.7295 8.32L8.3095 13.17C8.03191 13.6602 7.89359 14.2169 7.9095 14.78C7.94073 15.3613 8.1857 15.9105 8.59733 16.3222C9.00896 16.7338 9.55821 16.9788 10.1395 17.01C11.0439 16.9449 11.8984 16.5706 12.5595 15.95C13.2206 16.5706 14.0751 16.9449 14.9795 17.01C15.5608 16.9788 16.11 16.7338 16.5217 16.3222C16.9333 15.9105 17.1783 15.3613 17.2095 14.78C17.2254 14.2169 17.0871 13.6602 16.8095 13.17L14.3895 8.32ZM11.6695 12.7C11.6695 12.65 11.6795 11.47 12.5595 11.47C13.4395 11.47 13.4395 12.65 13.4395 12.7C13.3492 13.3883 13.0408 14.0296 12.5595 14.53C12.0746 14.031 11.7626 13.3895 11.6695 12.7ZM14.9795 16.01C14.3403 15.9483 13.7393 15.6777 13.2695 15.24C13.9316 14.5473 14.3434 13.6534 14.4395 12.7C14.4672 12.436 14.4426 12.1692 14.3671 11.9147C14.2916 11.6602 14.1668 11.4231 13.9996 11.217C13.8324 11.0108 13.6263 10.8396 13.3929 10.7131C13.1595 10.5867 12.9035 10.5075 12.6395 10.48L12.5595 10.47C12.294 10.4865 12.0345 10.5553 11.7957 10.6724C11.5569 10.7895 11.3435 10.9527 11.1679 11.1524C10.9923 11.3522 10.8579 11.5847 10.7724 11.8365C10.6868 12.0883 10.6519 12.3546 10.6695 12.62L10.6795 12.7C10.7749 13.6536 11.1867 14.5478 11.8495 15.24C11.3797 15.6777 10.7787 15.9483 10.1395 16.01C9.82309 15.981 9.52683 15.842 9.30215 15.6174C9.07747 15.3927 8.93855 15.0964 8.9095 14.78C8.89343 14.3736 8.99406 13.971 9.1995 13.62L11.6195 8.77C11.9495 8.12 12.1695 8.01 12.5595 8.01C12.9495 8.01 13.1695 8.12 13.4995 8.77L15.9195 13.62C16.1249 13.971 16.2256 14.3736 16.2095 14.78C16.1805 15.0964 16.0415 15.3927 15.8169 15.6174C15.5922 15.842 15.2959 15.981 14.9795 16.01ZM21.9895 5.66C21.9692 5.55649 21.9167 5.46206 21.8394 5.39021C21.7622 5.31837 21.6642 5.27279 21.5595 5.26C18.1813 4.92552 15.0671 3.28586 12.8795 0.689996C12.8308 0.636309 12.7713 0.59341 12.705 0.564053C12.6387 0.534697 12.567 0.519531 12.4945 0.519531C12.422 0.519531 12.3503 0.534697 12.284 0.564053C12.2177 0.59341 12.1582 0.636309 12.1095 0.689996C9.92195 3.28586 6.80768 4.92552 3.4295 5.26C3.3248 5.27279 3.22682 5.31837 3.14959 5.39021C3.07236 5.46206 3.01982 5.55649 2.9995 5.66C1.4195 13.85 4.5495 19.68 12.2995 22.97C12.3612 22.9961 12.4275 23.0096 12.4945 23.0096C12.5615 23.0096 12.6278 22.9961 12.6895 22.97C20.4395 19.68 23.5595 13.86 21.9895 5.66ZM12.4995 21.96C5.3995 18.87 2.5895 13.71 3.9295 6.2C7.22132 5.78699 10.259 4.21677 12.4995 1.77C14.74 4.21677 17.7777 5.78699 21.0695 6.2C22.3995 13.71 19.5895 18.87 12.4995 21.96Z" fill="black"/>
</svg>
