<svg width="16" height="17" viewBox="0 0 16 17" fill="none" xmlns="http://www.w3.org/2000/svg">
<path d="M7.24517 1.47583C7.66458 1.06275 8.33412 1.06274 8.75353 1.47583L9.37559 2.08849C9.63191 2.34095 9.99568 2.4487 10.3466 2.37611L11.1983 2.19995C11.7725 2.08118 12.3358 2.44633 12.4672 3.02257L12.6621 3.87723C12.7425 4.2294 12.9908 4.51844 13.3249 4.64876L14.1358 4.96504C14.6825 5.17829 14.9606 5.79266 14.7624 6.34911L14.4683 7.17441C14.3471 7.51448 14.4011 7.89304 14.6123 8.1849L15.125 8.8932C15.4706 9.37076 15.3753 10.0393 14.9103 10.3993L14.2206 10.9332C13.9364 11.1532 13.7789 11.5011 13.8002 11.8618L13.8518 12.7373C13.8867 13.3275 13.4482 13.838 12.8641 13.8872L11.9977 13.9602C11.6407 13.9903 11.3218 14.1971 11.1463 14.5121L10.7206 15.2768C10.4335 15.7923 9.79112 15.9826 9.27333 15.7055L8.50536 15.2944C8.18892 15.125 7.80978 15.125 7.49334 15.2944L6.72537 15.7055C6.20758 15.9826 5.56515 15.7923 5.2781 15.2768L4.85236 14.5121C4.67693 14.1971 4.35798 13.9903 4.00099 13.9602L3.13462 13.8872C2.55049 13.838 2.11203 13.3275 2.14685 12.7373L2.1985 11.8618C2.21978 11.5011 2.06229 11.1532 1.77809 10.9332L1.08839 10.3993C0.623374 10.0393 0.528089 9.37076 0.873731 8.8932L1.38637 8.1849C1.59761 7.89304 1.65157 7.51448 1.5304 7.17441L1.23634 6.34911C1.03808 5.79266 1.31622 5.17829 1.86294 4.96504L2.67382 4.64876C3.00795 4.51844 3.25623 4.2294 3.33655 3.87723L3.5315 3.02257C3.66294 2.44633 4.2262 2.08118 4.80042 2.19995L5.65208 2.37611C6.00302 2.4487 6.36679 2.34095 6.62311 2.08849L7.24517 1.47583Z" fill="#574EFA"/>
<path fill-rule="evenodd" clip-rule="evenodd" d="M11.1374 6.69461C11.3978 6.95496 11.3978 7.37707 11.1374 7.63742L7.70646 11.0684C7.31593 11.4589 6.68277 11.4589 6.29224 11.0684L4.86128 9.63742C4.60093 9.37707 4.60093 8.95496 4.86128 8.69461C5.12163 8.43426 5.54374 8.43426 5.80409 8.69461L6.99935 9.88987L10.1946 6.69461C10.455 6.43426 10.8771 6.43426 11.1374 6.69461Z" fill="white"/>
</svg>
