<svg width="41" height="40" viewBox="0 0 41 40" fill="none" xmlns="http://www.w3.org/2000/svg">
<g clip-path="url(#clip0_2431_87749)">
<path d="M17.1667 40H0.5V36.6667H17.1667V40ZM13.8333 30H0.5V33.3333H13.8333V30ZM10.5 23.3333H0.5V26.6667H10.5V23.3333ZM20.5 0C15.1974 0.00573514 10.1137 2.11471 6.3642 5.8642C2.61471 9.61368 0.505735 14.6974 0.5 20H3.83333C3.83333 16.7036 4.81082 13.4813 6.64217 10.7405C8.47353 7.99968 11.0765 5.86347 14.1219 4.60201C17.1674 3.34055 20.5185 3.01049 23.7515 3.65358C26.9845 4.29667 29.9542 5.88401 32.2851 8.21489C34.616 10.5458 36.2033 13.5155 36.8464 16.7485C37.4895 19.9815 37.1595 23.3326 35.898 26.3781C34.6365 29.4235 32.5003 32.0265 29.7595 33.8578C27.0187 35.6892 23.7964 36.6667 20.5 36.6667V40C25.8043 40 30.8914 37.8929 34.6421 34.1421C38.3929 30.3914 40.5 25.3043 40.5 20C40.5 14.6957 38.3929 9.60859 34.6421 5.85786C30.8914 2.10714 25.8043 0 20.5 0ZM18.8333 11.6667V20.69L24.3217 26.1783L26.6783 23.8217L22.1667 19.31V11.6667H18.8333Z" fill="#050408"/>
<path d="M17.1667 40.0017H0.5V36.6684H17.1667V40.0017ZM13.8333 30.0017H0.5V33.335H13.8333V30.0017ZM10.5 23.335H0.5V26.6684H10.5V23.335ZM18.8333 11.6684V20.6917L24.3217 26.18L26.6783 23.8234L22.1667 19.3117V11.6684H18.8333Z" fill="#8A8F8C"/>
</g>
<defs>
<clipPath id="clip0_2431_87749">
<rect width="40" height="40" fill="white" transform="translate(0.5)"/>
</clipPath>
</defs>
</svg>
