<svg width="43" height="40" viewBox="0 0 43 40" fill="none" xmlns="http://www.w3.org/2000/svg">
<path d="M30.5 36V32.6667C30.5 30.8986 29.7625 29.2029 28.4497 27.9526C27.137 26.7024 25.3565 26 23.5 26H9.5C7.64348 26 5.86301 26.7024 4.55025 27.9526C3.2375 29.2029 2.5 30.8986 2.5 32.6667V36" stroke="#00A0FF" stroke-width="3" stroke-linecap="round" stroke-linejoin="round"/>
<path d="M16.5 19C20.366 19 23.5 15.866 23.5 12C23.5 8.13401 20.366 5 16.5 5C12.634 5 9.5 8.13401 9.5 12C9.5 15.866 12.634 19 16.5 19Z" stroke="#00A0FF" stroke-width="3" stroke-linecap="round" stroke-linejoin="round"/>
<path d="M39.5 36V32.5928C39.4989 31.083 39.0073 29.6163 38.1023 28.423C37.1973 27.2297 35.9302 26.3775 34.5 26" stroke="#312DF8" stroke-width="3" stroke-linecap="round" stroke-linejoin="round"/>
<path d="M27.5 5C28.9303 5.39796 30.198 6.30191 31.1033 7.56933C32.0086 8.83676 32.5 10.3956 32.5 12C32.5 13.6044 32.0086 15.1632 31.1033 16.4307C30.198 17.6981 28.9303 18.602 27.5 19" stroke="#312DF8" stroke-width="3" stroke-linecap="round" stroke-linejoin="round"/>
</svg>
