<svg width="41" height="40" viewBox="0 0 41 40" fill="none" xmlns="http://www.w3.org/2000/svg">
<path d="M34.4525 32.7078C33.6949 26.9144 29.386 23.0748 25.6339 19.9984C29.386 16.922 33.6965 13.0824 34.4525 7.29058C34.6594 5.7025 34.1849 4.09858 33.1458 2.89367C32.1098 1.69033 30.6164 1 29.0469 1H11.9527C10.3831 1 8.8898 1.69192 7.85379 2.89683C6.81622 4.10492 6.34022 5.70883 6.54866 7.30008C7.30934 13.0887 11.6167 16.9268 15.3672 20C11.6167 23.0748 7.30934 26.9112 6.54866 32.6999C6.33866 34.2943 6.81467 35.9014 7.85379 37.1095C8.88669 38.3112 10.3785 39 11.9434 39H29.0546C30.6211 39 32.1113 38.3112 33.1442 37.1111C34.1818 35.9046 34.6578 34.3007 34.4494 32.7094L34.4525 32.7078ZM31.976 36.0677C31.2387 36.9242 30.1747 37.4167 29.0578 37.4167H11.9449C10.8265 37.4167 9.76247 36.9242 9.02669 36.0677C8.28312 35.2032 7.94245 34.0521 8.09179 32.9105C8.82135 27.3562 13.4103 23.6195 17.0985 20.6175C17.2836 20.4671 17.391 20.2391 17.391 19.9984C17.391 19.7577 17.2836 19.5313 17.0985 19.3793C13.4103 16.3773 8.82291 12.6407 8.09179 7.08633C7.94245 5.94792 8.28312 4.8 9.02513 3.9355C9.76558 3.07575 10.8327 2.58175 11.9527 2.58175H29.0453C30.1669 2.58175 31.234 3.07417 31.9744 3.93392C32.718 4.79683 33.0571 5.94317 32.9093 7.08C32.1829 12.6359 27.5924 16.3758 23.9026 19.3793C23.7175 19.5298 23.6117 19.7577 23.6117 19.9984C23.6117 20.2391 23.719 20.4655 23.9026 20.6175C27.5924 23.6211 32.1829 27.3593 32.9093 32.9168C33.0587 34.0568 32.718 35.2048 31.9744 36.0677H31.976Z" fill="#FFBD00"/>
<path fill-rule="evenodd" clip-rule="evenodd" d="M34.9812 32.9998L34.994 32.9932L34.9482 32.643C34.1948 26.8812 30.0571 23.0111 26.4203 19.9984C30.0571 16.9858 34.1964 13.1157 34.9483 7.3553L34.9483 7.35518C35.1733 5.62781 34.6577 3.8812 33.5244 2.56712C32.3948 1.25525 30.764 0.5 29.0469 0.5H11.9527C10.2351 0.5 8.6041 1.25727 7.47466 2.57085L7.47448 2.57106C6.34367 3.88772 5.82613 5.63395 6.0529 7.36503L6.05292 7.36523C6.80942 13.1221 10.9454 16.9903 14.5807 20.0001C10.9456 23.011 6.8095 26.8778 6.05294 32.6346C5.82454 34.3688 6.34189 36.1185 7.47472 37.4355C8.60141 38.7463 10.231 39.5 11.9434 39.5H29.0546C30.7687 39.5 32.3966 38.7463 33.5232 37.4372L33.5233 37.4371C34.577 36.2118 35.0982 34.6124 34.9812 32.9998ZM7.85378 37.1095C8.88668 38.3112 10.3785 39 11.9434 39H29.0546C30.6211 39 32.1113 38.3112 33.1442 37.1111C34.1818 35.9046 34.6578 34.3007 34.4494 32.7094L34.4525 32.7078C33.7213 27.116 29.6815 23.3444 26.0274 20.3223C25.8957 20.2134 25.7645 20.1055 25.6339 19.9984C25.7645 19.8914 25.8957 19.7834 26.0274 19.6745C29.6816 16.6525 33.7228 12.8809 34.4525 7.29058C34.6594 5.7025 34.1849 4.09858 33.1458 2.89367C32.1098 1.69033 30.6164 1 29.0469 1H11.9527C10.3831 1 8.88979 1.69192 7.85378 2.89683C6.81622 4.10492 6.34022 5.70883 6.54866 7.30008C7.28285 12.8872 11.3211 16.6571 14.9736 19.6762C15.1054 19.7851 15.2366 19.893 15.3672 20C15.2366 20.107 15.1054 20.215 14.9737 20.3239C11.3211 23.3443 7.28286 27.1127 6.54866 32.6999C6.33866 34.2943 6.81466 35.9014 7.85378 37.1095ZM17.0985 19.3793C17.2836 19.5313 17.391 19.7577 17.391 19.9984C17.391 20.2391 17.2836 20.4671 17.0985 20.6175C13.4103 23.6195 8.82135 27.3562 8.09179 32.9105C7.94245 34.0521 8.28312 35.2032 9.02668 36.0677C9.76247 36.9242 10.8265 37.4167 11.9449 37.4167H29.0577C29.9349 37.4167 30.7794 37.113 31.4587 36.5677C31.6438 36.4191 31.8166 36.2526 31.9744 36.0695C31.9747 36.0691 31.975 36.0688 31.9753 36.0684C31.9756 36.0682 31.9758 36.0679 31.976 36.0677H31.9744C31.9747 36.0674 31.9749 36.0672 31.9751 36.0669C31.9754 36.0665 31.9757 36.0662 31.976 36.0659C32.1113 35.9086 32.2332 35.742 32.3413 35.5677C32.8262 34.7853 33.0314 33.8484 32.9093 32.9168C32.1829 27.3593 27.5924 23.6211 23.9026 20.6175C23.719 20.4655 23.6117 20.2391 23.6117 19.9984C23.6117 19.7577 23.7175 19.5298 23.9026 19.3793C27.5924 16.3758 32.1829 12.6359 32.9093 7.08C33.0571 5.94317 32.718 4.79683 31.9744 3.93392C31.234 3.07417 30.1669 2.58175 29.0453 2.58175H11.9527C10.8327 2.58175 9.76558 3.07575 9.02513 3.9355C8.28312 4.8 7.94245 5.94792 8.09179 7.08633C8.8229 12.6407 13.4103 16.3773 17.0985 19.3793ZM9.40427 4.26146C8.75564 5.01736 8.45662 6.02277 8.58751 7.02108C9.28833 12.3453 13.6913 15.9614 17.4142 18.9915L17.4158 18.9929C17.7166 19.2399 17.891 19.6081 17.891 19.9984C17.891 20.3871 17.7178 20.7584 17.4142 21.0053C13.6912 24.0355 9.28699 27.6515 8.58756 32.9754C8.45645 33.9776 8.75598 34.9862 9.40576 35.7416L9.40597 35.7419C10.048 36.4893 10.9741 36.9167 11.9449 36.9167H29.0577C29.9966 36.9167 30.8955 36.5156 31.5361 35.8104L31.5957 35.7413C32.2453 34.9873 32.5446 33.9821 32.4136 32.9818L32.4136 32.9816C31.7172 27.6547 27.3115 24.0372 23.5869 21.0053L23.5837 21.0026C23.2858 20.7559 23.1117 20.3885 23.1117 19.9984C23.1117 19.6119 23.2818 19.2396 23.5873 18.9913C27.3117 15.9596 31.7171 12.3406 32.4135 7.01555C32.5432 6.01792 32.2452 5.01415 31.5957 4.2603L31.5956 4.26021C30.9489 3.50933 30.0195 3.08175 29.0453 3.08175H11.9527C10.9808 3.08175 10.0513 3.51034 9.40427 4.26146Z" fill="#FFBD00"/>
<path d="M28.9043 6.75225C28.9696 6.51475 28.9214 6.25825 28.7736 6.06192C28.6258 5.864 28.3971 5.75 28.1544 5.75H12.938C12.6953 5.75 12.4666 5.86717 12.3204 6.06192C12.1741 6.25825 12.1243 6.51317 12.1881 6.75067C13.1231 10.2467 16.401 12.9162 19.5731 15.4954C19.5731 15.4954 19.8625 15.7456 19.9931 15.8817C20.1394 16.0353 20.3401 16.1208 20.5501 16.1208C20.7601 16.1208 20.9608 16.0353 21.107 15.8817C21.2377 15.7456 21.3762 15.6173 21.524 15.497C24.5374 13.0444 27.9522 10.2641 28.9074 6.75067L28.9043 6.75225ZM20.5485 14.262L20.5454 14.2604C17.9069 12.1118 15.1875 9.89833 14.0457 7.33492H27.0421C25.8691 9.93317 23.061 12.2179 20.5485 14.262Z" fill="#FF9C00"/>
</svg>
