<svg width="40" height="40" viewBox="0 0 40 40" fill="none" xmlns="http://www.w3.org/2000/svg">
<g clip-path="url(#clip0_2397_78332)">
<path d="M36.6417 9.4569V3.30023C36.6417 2.38023 35.895 1.63357 34.975 1.63357C34.055 1.63357 33.3083 2.38023 33.3083 3.30023V7.19357L24.6617 1.36023C21.83 -0.549766 18.17 -0.549766 15.3383 1.36023L3.67167 9.23357C1.37333 10.7852 0 13.3669 0 16.1419V31.6686C0 36.2636 3.73833 40.0019 8.33333 40.0019H31.6667C36.2617 40.0019 40 36.2636 40 31.6686V16.1419C40 13.4969 38.75 11.0269 36.6417 9.4569ZM13.3333 36.6669C13.3333 32.9902 16.3233 30.0002 20 30.0002C23.6767 30.0002 26.6667 32.9902 26.6667 36.6669H13.3333ZM36.6667 31.6669C36.6667 34.4236 34.4233 36.6669 31.6667 36.6669H30C30 31.1519 25.515 26.6669 20 26.6669C14.485 26.6669 10 31.1519 10 36.6669H8.33333C5.57667 36.6669 3.33333 34.4236 3.33333 31.6669V16.1402C3.33333 14.4752 4.15667 12.9269 5.53667 11.9969L17.2033 4.12357C18.0517 3.55023 19.0267 3.26357 20 3.26357C20.9733 3.26357 21.9467 3.55023 22.7967 4.12357L34.4633 11.9969C35.8433 12.9286 36.6667 14.4769 36.6667 16.1402V31.6669ZM20 11.6669C16.3233 11.6669 13.3333 14.6569 13.3333 18.3336C13.3333 22.0102 16.3233 25.0002 20 25.0002C23.6767 25.0002 26.6667 22.0102 26.6667 18.3336C26.6667 14.6569 23.6767 11.6669 20 11.6669ZM20 21.6669C18.1617 21.6669 16.6667 20.1719 16.6667 18.3336C16.6667 16.4952 18.1617 15.0002 20 15.0002C21.8383 15.0002 23.3333 16.4952 23.3333 18.3336C23.3333 20.1719 21.8383 21.6669 20 21.6669Z" fill="#FF7277"/>
<path d="M20.0026 11.667C16.3259 11.667 13.3359 14.657 13.3359 18.3337C13.3359 22.0103 16.3259 25.0003 20.0026 25.0003C23.6793 25.0003 26.6693 22.0103 26.6693 18.3337C26.6693 14.657 23.6793 11.667 20.0026 11.667ZM20.0026 21.667C18.1643 21.667 16.6693 20.172 16.6693 18.3337C16.6693 16.4953 18.1643 15.0003 20.0026 15.0003C21.8409 15.0003 23.3359 16.4953 23.3359 18.3337C23.3359 20.172 21.8409 21.667 20.0026 21.667Z" fill="#FE0D15"/>
</g>
<defs>
<clipPath id="clip0_2397_78332">
<rect width="40" height="40" fill="white"/>
</clipPath>
</defs>
</svg>
